<svg xmlns="http://www.w3.org/2000/svg" enable-background="new 0 0 64 64" viewBox="0 0 64 64"><path fill="#c3c1c1" d="M33.8,9.1h10.7c1.7,0,3.1,1.4,3.1,3.1v44.2c0,1.7-1.4,3.1-3.1,3.1H8.9c-1.7,0-3.1-1.4-3.1-3.1V12.3
			c0-1.7,1.4-3.1,3.1-3.1h9.7"/><path fill="#231f20" d="M44.5,60.5H8.9c-2.3,0-4.1-1.8-4.1-4.1V12.3c0-2.3,1.8-4.1,4.1-4.1h9.7v1.9H8.9c-1.2,0-2.2,1-2.2,2.2v44.2
			c0,1.2,1,2.2,2.2,2.2h35.6c1.2,0,2.2-1,2.2-2.2V12.3c0-1.2-1-2.2-2.2-2.2H33.8V8.2h10.7c2.3,0,4.1,1.8,4.1,4.1v44.2
			C48.6,58.7,46.8,60.5,44.5,60.5z"/><path fill="#efefef" d="M40,56H13.4c-2,0-3.6-1.6-3.6-3.6V16.3c0-2,1.6-3.6,3.6-3.6H40c2,0,3.6,1.6,3.6,3.6v36.1
			C43.6,54.4,42,56,40,56z"/><path fill="#231f20" d="M40.1,57H13.3c-2.5,0-4.5-2-4.5-4.5V16.2c0-2.5,2-4.5,4.5-4.5h26.8c2.5,0,4.5,2,4.5,4.5v36.3
			C44.6,55,42.6,57,40.1,57z M13.3,13.7c-1.4,0-2.5,1.1-2.5,2.5v36.3c0,1.4,1.1,2.5,2.5,2.5h26.8c1.4,0,2.5-1.1,2.5-2.5V16.2
			c0-1.4-1.1-2.5-2.5-2.5H13.3z"/><path fill="#c3c1c1" d="M30.3,4.6c0-2-1.6-3.6-3.6-3.6c-2,0-3.6,1.6-3.6,3.6h-1.8c-1.5,0-2.7,1.2-2.7,2.7v1.9v3.6h16.1V9.1V7.3
			c0-1.5-1.2-2.7-2.7-2.7H30.3z"/><path fill="#231f20" d="M35.7 13.7H17.7V7.3c0-2 1.6-3.6 3.6-3.6h.9C22.7 1.6 24.5 0 26.7 0c2.2 0 4 1.6 4.5 3.6h.9c2 0 3.6 1.6 3.6 3.6V13.7zM19.6 11.7h14.2V7.3c0-.9-.8-1.7-1.7-1.7h-2.7v-1c0-1.5-1.2-2.7-2.7-2.7S24 3.1 24 4.6v1h-2.7c-.9 0-1.7.8-1.7 1.7V11.7zM18.3 24h-3.6c-.9 0-1.6-.7-1.6-1.6v-4.1c0-.9.7-1.6 1.6-1.6h3.6c.9 0 1.6.7 1.6 1.6v4.1C19.9 23.3 19.2 24 18.3 24zM15.1 22.1h2.9v-3.4h-2.9V22.1zM39.3 21.4H23.7c-.5 0-1-.4-1-1s.4-1 1-1h15.6c.5 0 1 .4 1 1S39.8 21.4 39.3 21.4zM18.3 32.8h-3.6c-.9 0-1.6-.7-1.6-1.6v-4.1c0-.9.7-1.6 1.6-1.6h3.6c.9 0 1.6.7 1.6 1.6v4.1C19.9 32.1 19.2 32.8 18.3 32.8zM15.1 30.8h2.9v-3.4h-2.9V30.8zM39.3 30.1H23.7c-.5 0-1-.4-1-1 0-.5.4-1 1-1h15.6c.5 0 1 .4 1 1C40.3 29.7 39.8 30.1 39.3 30.1zM18.3 41.5h-3.6c-.9 0-1.6-.7-1.6-1.6v-4.1c0-.9.7-1.6 1.6-1.6h3.6c.9 0 1.6.7 1.6 1.6V40C19.9 40.8 19.2 41.5 18.3 41.5zM15.1 39.6h2.9v-3.4h-2.9V39.6zM39.3 38.9H23.7c-.5 0-1-.4-1-1s.4-1 1-1h15.6c.5 0 1 .4 1 1S39.8 38.9 39.3 38.9zM18.3 50.3h-3.6c-.9 0-1.6-.7-1.6-1.6v-4.1c0-.9.7-1.6 1.6-1.6h3.6c.9 0 1.6.7 1.6 1.6v4.1C19.9 49.6 19.2 50.3 18.3 50.3zM15.1 48.3h2.9v-3.4h-2.9V48.3zM39.3 47.6H23.7c-.5 0-1-.4-1-1 0-.5.4-1 1-1h15.6c.5 0 1 .4 1 1C40.3 47.2 39.8 47.6 39.3 47.6z"/><circle cx="47.1" cy="51.9" r="11.1" fill="#ffe096" transform="rotate(-70.19 47.102 51.923)"/><path fill="#231f20" d="M47.1,64C40.4,64,35,58.6,35,51.9c0-6.7,5.4-12.1,12.1-12.1c6.7,0,12.1,5.4,12.1,12.1
			C59.2,58.6,53.8,64,47.1,64z M47.1,41.8c-5.6,0-10.1,4.5-10.1,10.1c0,5.6,4.5,10.1,10.1,10.1s10.1-4.5,10.1-10.1
			C57.2,46.3,52.7,41.8,47.1,41.8z"/><g><polygon fill="#231f20" points="43.6 56.8 39.6 52.7 41 51.3 43.8 54.3 53.3 47.5 54.5 49.1"/></g></svg>