<svg xmlns="http://www.w3.org/2000/svg" data-name="Layer 1" viewBox="0 0 512 512"><g data-name="&lt;Group&gt;"><path fill="#00acea" d="M401.45,473.58a21.822,21.822,0,0,1-43.63.79l-5.97-200.81h99.2l-5.97,200.81a21.822,21.822,0,0,1-43.63-.79Z"/><path fill="#fedb41" d="M436.57,61.9V76.5a36.5,36.5,0,0,1-72.99,0V61.9a36.5,36.5,0,1,1,72.99,0Z"/><path fill="#00efd1" d="M382.44,160.42l18.35-17.02,19.48,17.03,14.6-31.45h19.21a37.908,37.908,0,0,1,37.72,41.73V282.88a20.15,20.15,0,0,1-40.3,0V258.37l-.45,15.19H351.16v8.77c0,11.12-8.78,20.56-19.9,20.69a20.146,20.146,0,0,1-20.36-20.13V170.71a37.916,37.916,0,0,1,37.73-41.73h20.39Z"/><path fill="#00acea" d="M336,42.39V73.02a15.432,15.432,0,0,1-15.43,15.43H309.44l1.78,25.39-41.6-25.11,10.8.09a15.437,15.437,0,0,0,15.56-15.29l.34-40.63a15.385,15.385,0,0,0-1.13-5.93h25.38A15.424,15.424,0,0,1,336,42.39Z"/><path fill="#fedb41" d="M295.19,26.97a15.385,15.385,0,0,1,1.13,5.93l-.34,40.63a15.437,15.437,0,0,1-15.56,15.29l-10.8-.09-16.93-.14-42.36,35.04,2.08-35.38-21.13-.18a15.424,15.424,0,0,1-15.3-15.55l.34-40.63A15.422,15.422,0,0,1,191.87,16.6l77.58.65,11.57.09A15.429,15.429,0,0,1,295.19,26.97Z"/><path fill="#00efd1" d="M91.73,160.42l18.35-17.02,19.48,17.03h.01l14.59-31.45h19.22a37.914,37.914,0,0,1,37.72,41.73V282.88a20.15,20.15,0,0,1-40.3,0V258.37l-.45,15.19H61.15l-.57-19.23h-.12v28c0,11.12-8.78,20.56-19.9,20.69A20.129,20.129,0,0,1,20.2,282.89V170.71a37.91,37.91,0,0,1,37.73-41.73H78.32Z"/><path fill="#00acea" d="M110.75,473.58a21.827,21.827,0,0,1-43.64.79L61.15,273.56h99.2l-5.97,200.81a21.822,21.822,0,0,1-43.63-.79Z"/><path fill="#fedb41" d="M145.87,61.9V76.5a36.5,36.5,0,0,1-72.99,0V61.9a36.5,36.5,0,1,1,72.99,0Z"/></g></svg>