<svg xmlns="http://www.w3.org/2000/svg" enable-background="new 0 0 24 24" viewBox="0 0 24 24"><path fill="#303c42" d="M22.041,8.51c-0.704-0.548-1.826-1.425-3.044-2.385l1.064-1.064c0.195-0.195,0.195-0.512,0-0.707   l-1.414-1.414c-0.195-0.195-0.512-0.195-0.707,0l-1.308,1.308c-1.558-1.248-2.677-2.169-3.288-2.709C12.946,1.186,12.473,1,12,1   c-0.473,0-0.947,0.186-1.344,0.538C8.972,3.029,4.014,6.91,1.959,8.51C1.35,8.985,1,9.703,1,10.479V21c0,1.103,0.897,2,2,2h18   c1.103,0,2-0.897,2-2V10.479C23,9.703,22.65,8.985,22.041,8.51z"/><path fill="#f2f2f2" d="M18.293,4L19,4.707l-7,7l-3-3L9.707,8l1.939,1.939c0.195,0.195,0.512,0.195,0.707,0L18.293,4z"/><path fill="#0288d1" d="M2.574,9.299c2.061-1.605,7.039-5.502,8.744-7.012c0.43-0.381,0.934-0.381,1.363,0   c0.61,0.54,1.714,1.449,3.239,2.671L12,8.879l-1.939-1.939c-0.195-0.195-0.512-0.195-0.707,0L7.939,8.354   c-0.195,0.195-0.195,0.512,0,0.707l3.707,3.707c0.098,0.098,0.226,0.146,0.354,0.146s0.256-0.049,0.354-0.146l5.931-5.931   c1.256,0.99,2.42,1.9,3.141,2.462C21.791,9.583,22,10.013,22,10.479v0.236l-10,5.897L2,10.714v-0.236   C2,10.013,2.209,9.583,2.574,9.299z"/><path fill="#29b6f6" d="M2,21v-9.125l9.016,5.317l-8.117,4.787C2.397,21.926,2,21.515,2,21z"/><path fill="#fff" d="M2.5 10.978c0-.466.209-.896.574-1.18C5.134 8.193 10.295 4.296 12 2.786c.315-.28.671-.35 1.007-.219-.112-.096-.235-.201-.326-.281-.43-.381-.934-.381-1.363 0-1.705 1.51-6.684 5.407-8.744 7.012C2.209 9.583 2 10.013 2 10.479v.236l.5.295V10.978zM2.5 21.5v-9.33L2 11.875V21c0 .401.243.732.586.888C2.533 21.768 2.5 21.639 2.5 21.5z" opacity=".2"/><path fill="#81d4fa" d="M21,22H4.832L22,11.875V21C22,21.551,21.552,22,21,22z"/><path d="M21.5,12.17v8.33c0,0.551-0.448,1-1,1H5.68L4.832,22H21c0.552,0,1-0.449,1-1v-9.125L21.5,12.17z" opacity=".1"/><linearGradient id="a" x1="14.963" x2="19.113" y1="9.451" y2="13.602" gradientUnits="userSpaceOnUse"><stop offset="0" stop-opacity=".1"/><stop offset="1" stop-opacity="0"/></linearGradient><path fill="url(#a)" d="M22,10.714v-0.236c0-0.466-0.209-0.896-0.574-1.18c-0.722-0.563-1.885-1.472-3.141-2.462   l-5.931,5.931c-0.098,0.098-0.226,0.146-0.354,0.146s-0.256-0.049-0.354-0.146l2.549,2.549L22,10.714z"/><linearGradient id="b" x1="1.553" x2="24.038" y1="8.733" y2="19.218" gradientUnits="userSpaceOnUse"><stop offset="0" stop-color="#fff" stop-opacity=".2"/><stop offset="1" stop-color="#fff" stop-opacity="0"/></linearGradient><path fill="url(#b)" d="M22.041,8.51c-0.704-0.548-1.826-1.425-3.044-2.385l1.064-1.064   c0.195-0.195,0.195-0.512,0-0.707l-1.414-1.414c-0.195-0.195-0.512-0.195-0.707,0l-1.308,1.308   c-1.558-1.248-2.677-2.169-3.288-2.709C12.946,1.186,12.473,1,12,1c-0.473,0-0.947,0.186-1.344,0.538   C8.972,3.029,4.014,6.91,1.959,8.51C1.35,8.985,1,9.703,1,10.479V21c0,1.103,0.897,2,2,2h18c1.103,0,2-0.897,2-2V10.479   C23,9.703,22.65,8.985,22.041,8.51z"/></svg>