<svg xmlns="http://www.w3.org/2000/svg" viewBox="0 0 32 32"><path d="M2.003 23.156a.5.5 0 0 0 .451-.715A15.086 15.086 0 0 1 1 16c0-1.067 1.549-2.195 4.207-3.055-.068.5-.12 1.007-.154 1.522a.5.5 0 0 0 .466.532.493.493 0 0 0 .532-.466c.043-.649.124-1.28.222-1.902 1.406-.377 3.057-.681 4.9-.879-.034.411-.063.823-.086 1.235a.5.5 0 0 0 .471.527l.029.001a.5.5 0 0 0 .499-.472c.027-.473.06-.935.098-1.384a46.1 46.1 0 0 1 3.818-.16c1.342 0 2.612.06 3.818.16.036.421.067.851.093 1.293a.49.49 0 0 0 .528.47.5.5 0 0 0 .47-.528c-.022-.381-.05-.762-.081-1.142 1.842.198 3.493.502 4.899.879.098.622.179 1.253.222 1.901a.497.497 0 0 0 .497.468l.034-.001a.501.501 0 0 0 .466-.532 22.08 22.08 0 0 0-.154-1.522C29.451 13.805 31 14.933 31 16c0 2.21-.5 4.434-1.447 6.43a.5.5 0 1 0 .903.428A16.103 16.103 0 0 0 32 16c0-8.822-7.178-16-16-16S0 7.178 0 16c0 2.362.536 4.738 1.551 6.871a.5.5 0 0 0 .452.285zm-.573-9.492c.763-2.115 2.525-3.971 4.949-5.326a20.413 20.413 0 0 0-.989 3.525c-1.636.484-3.011 1.086-3.96 1.801zm5.033-2.094a18.87 18.87 0 0 1 1.269-3.905 19.187 19.187 0 0 1 4.235-1.287 37.984 37.984 0 0 0-.699 4.373c-1.706.18-3.337.455-4.805.819zM18.7 5.169A23.144 23.144 0 0 0 16 5c-.922 0-1.821.066-2.701.169C14.078 2.486 15.089 1 16 1c.909 0 1.921 1.487 2.7 4.169zm-.604-3.814c2.155.713 4.075 2.494 5.484 4.961a20.939 20.939 0 0 0-3.807-.995c-.442-1.639-1.001-3.02-1.677-3.966zm-5.87 3.967c-1.34.224-2.621.554-3.806.994 1.409-2.466 3.327-4.246 5.482-4.96-.676.946-1.235 2.326-1.676 3.966zM16 10.5c-1.245 0-2.494.057-3.719.158.18-1.689.438-3.181.746-4.459a22.198 22.198 0 0 1 5.945 0c.309 1.278.567 2.771.747 4.459A45.407 45.407 0 0 0 16 10.5zm4.733.251a38.014 38.014 0 0 0-.7-4.373c1.522.284 2.95.718 4.236 1.287a18.87 18.87 0 0 1 1.269 3.905 35.836 35.836 0 0 0-4.805-.819zm5.878 1.112a20.503 20.503 0 0 0-.989-3.525c2.423 1.355 4.185 3.211 4.948 5.326-.949-.715-2.324-1.317-3.959-1.801zm3.406-1.157C28.8 9.189 27.079 7.89 25.009 6.917c-.994-2.063-2.308-3.773-3.831-4.976a15.05 15.05 0 0 1 8.839 8.765zM10.822 1.94C9.3 3.144 7.986 4.853 6.992 6.917 4.921 7.89 3.2 9.189 1.983 10.706a15.054 15.054 0 0 1 8.839-8.766zM2.977 32a.5.5 0 0 0 .5-.5v-1.101c0-.56-.208-1.096-.585-1.509l-.362-.396a.499.499 0 1 0-.738.674l.362.396c.208.229.324.525.324.835V31.5c-.001.276.222.5.499.5zM11.333 28.092a.5.5 0 0 0-.033.706c.237.26.368.597.368.948V31.5a.5.5 0 0 0 1 0v-1.754c0-.602-.223-1.177-.628-1.622a.5.5 0 0 0-.707-.032zM20.332 31.5v-1.754c0-.352.131-.688.368-.948a.499.499 0 0 0-.032-.706.496.496 0 0 0-.706.032 2.4 2.4 0 0 0-.629 1.622V31.5a.5.5 0 0 0 .999 0zM29.471 28.494l-.363.396a2.234 2.234 0 0 0-.584 1.509V31.5a.5.5 0 0 0 1 0v-1.101c0-.31.115-.606.323-.835l.362-.396a.5.5 0 1 0-.738-.674z"/><path d="M.5 32a.5.5 0 0 0 .5-.5v-3.095c0-.622.391-1.186.974-1.405l.998-.374A3.999 3.999 0 0 0 6 28.019a4 4 0 0 0 3.028-1.393l.615.231A2.825 2.825 0 0 0 9 28.634V31.5a.5.5 0 0 0 1 0v-2.866c0-.646.327-1.235.875-1.576l2.224-1.386c.756.789 1.798 1.269 2.9 1.269 1.102 0 2.143-.48 2.899-1.268l2.225 1.385c.549.341.877.93.877 1.577V31.5a.5.5 0 0 0 1 0v-2.865c0-.665-.242-1.279-.644-1.778l.615-.231A4 4 0 0 0 26 28.019a4 4 0 0 0 3.028-1.393l.998.374c.583.219.974.783.974 1.405V31.5a.5.5 0 0 0 1 0v-3.095a2.511 2.511 0 0 0-1.622-2.341L28 25.172V24.02a2.983 2.983 0 0 0 .999-2.219v-1.169l.581-2.13c.082-.453-.019-.911-.284-1.288s-.662-.627-1.116-.703l-2.85-.475a1.68 1.68 0 0 0-1.91 1.263 1.473 1.473 0 0 0-.7.479c-.282.349-.39.8-.278 1.303L23 20.642v1.16c0 .884.391 1.671 1.001 2.221v1.149l-2.378.893c-.04.015-.074.038-.113.054l-.834-.519a1.676 1.676 0 0 0 .941-1.783 28.909 28.909 0 0 1-.364-4.563v-1.655-.001-.001a5.222 5.222 0 0 0-5.216-5.216 5.222 5.222 0 0 0-5.216 5.216v1.657c0 1.521-.123 3.057-.364 4.563a1.656 1.656 0 0 0 .903 1.76l-.869.542c-.038-.016-.073-.039-.112-.054L8 25.172V24.02a2.983 2.983 0 0 0 .999-2.219v-1.169l.581-2.13c.082-.453-.019-.911-.284-1.288s-.662-.627-1.116-.703l-2.85-.475a1.682 1.682 0 0 0-1.91 1.263 1.473 1.473 0 0 0-.7.479c-.282.349-.39.8-.278 1.303L3 20.642v1.16c0 .884.391 1.671 1.001 2.221v1.149l-2.378.893A2.51 2.51 0 0 0 0 28.405V31.5a.5.5 0 0 0 .5.5zm23.135-12.542l-.234-.65a.478.478 0 0 1 .468-.578c.276 0 .5-.256.5-.532a.69.69 0 0 1 .797-.674l2.85.475a.702.702 0 0 1 .463.292c.11.156.152.347.127.492l-.302 1.104-.085-.124a.499.499 0 0 0-.413-.218H24.18a.499.499 0 0 0-.416.223l-.129.19zm.364 2.344v-1.089l.448-.67h3.095l.457.669v1.09a1.99 1.99 0 0 1-1.364 1.886l-.025.008a1.988 1.988 0 0 1-1.808-.306c-.003-.002-.006-.001-.008-.003a1.99 1.99 0 0 1-.795-1.585zm.677 4.184a.499.499 0 0 0 .324-.467v-.893c.056.02.116.029.173.046.094.027.186.057.284.075.132.024.266.034.4.04.048.002.093.014.141.014.042 0 .081-.011.122-.012.143-.006.285-.017.426-.043.084-.016.164-.042.246-.065.069-.019.14-.03.208-.055v.892a.5.5 0 0 0 .324.468l.682.256a2.999 2.999 0 0 1-2.006.777 3 3 0 0 1-2.006-.776l.682-.257zM16 25.94c-.76 0-1.484-.301-2.039-.806l.533-.332a.491.491 0 0 0 .226-.425h.009v-1.075a3.71 3.71 0 0 0 1.263.234c.449 0 .874-.092 1.274-.237v1.078h.01c0 .167.075.33.227.425l.535.333A3.04 3.04 0 0 1 16 25.94zm-2.771-6.167v-.631c0-.768.446-1.453 1.113-1.807 1.212.879 2.613 1.36 4.069 1.36h.001l.227.007c.04 0 .077.01.116.013v1.058c0 1.523-1.24 2.764-2.763 2.764s-2.763-1.24-2.763-2.764zm7.4 4.202a.68.68 0 0 1-.671.787h-.628l-1.063-.662v-1.348a3.746 3.746 0 0 0 1.489-2.979v-.565c.305.328.497.786.497 1.295 0 .082.024.156.059.224.053 1.088.145 2.176.317 3.248zm-8.809-4.721v-1.657c0-2.324 1.891-4.216 4.216-4.216s4.216 1.892 4.216 4.216v.717a2.534 2.534 0 0 0-.752-.445.482.482 0 0 0-.176-.059 2.363 2.363 0 0 0-.668-.107l-.227-.007c-1.316 0-2.573-.441-3.646-1.264a.496.496 0 0 0-.562-.162 3.076 3.076 0 0 0-1.976 2.672c-.004.027-.016.051-.016.078v.755c0 1.222.595 2.299 1.5 2.987V24.1l-1.062.662h-.553a.68.68 0 0 1-.67-.787c.25-1.558.376-3.147.376-4.721zm-8.185.204l-.234-.65a.478.478 0 0 1 .468-.578c.276 0 .5-.256.5-.532a.69.69 0 0 1 .797-.674l2.85.475a.702.702 0 0 1 .463.292c.11.156.152.347.127.492l-.302 1.104-.085-.124a.499.499 0 0 0-.413-.218H4.179a.499.499 0 0 0-.416.223l-.128.19zm.364 2.344v-1.089l.448-.67h3.095l.457.669v1.09a1.99 1.99 0 0 1-.798 1.588l-.003.001a2.024 2.024 0 0 1-.568.299l-.015.005c-.398.13-.828.131-1.227.002l-.022-.007a1.99 1.99 0 0 1-.565-.297l-.004-.001a1.994 1.994 0 0 1-.798-1.59zm.677 4.184A.499.499 0 0 0 5 25.519v-.892c.062.022.127.032.19.05.088.025.174.053.265.07.135.025.272.035.41.041.045.002.088.014.134.014.044 0 .085-.011.129-.013.14-.006.279-.017.416-.042.091-.017.177-.045.265-.07.064-.018.13-.028.192-.051v.893a.5.5 0 0 0 .324.468l.681.256A3.003 3.003 0 0 1 6 27.019a3 3 0 0 1-2.006-.776l.682-.257z"/></svg>