<svg xmlns="http://www.w3.org/2000/svg" enable-background="new 0 0 66 66" viewBox="0 0 66 66"><path fill="#4e6575" d="M4.96,37.44V9.85h52.63v39.92c0,0.99-0.8,1.79-1.79,1.79H6.75c-0.99,0-1.79-0.8-1.79-1.79v-7.48"/><path fill="#fff" d="M57.59,9.84v33.55h-6.84c-18.53,0-33.55-15.02-33.55-33.55v0H57.59z" opacity=".4"/><path d="M55.79 52.53H6.75c-1.52 0-2.76-1.24-2.76-2.76v-7.48c0-.54.43-.97.97-.97s.97.43.97.97v7.48c0 .45.37.82.82.82h49.04c.45 0 .82-.37.82-.82V34.6c0-.54.43-.97.97-.97s.97.43.97.97v15.16C58.56 51.29 57.32 52.53 55.79 52.53zM4.96 38.41c-.54 0-.97-.43-.97-.97V9.85c0-.54.43-.97.97-.97h52.63c.54 0 .97.43.97.97v19.31c0 .54-.43.97-.97.97s-.97-.43-.97-.97V10.82H5.93v26.62C5.93 37.97 5.5 38.41 4.96 38.41z"/><path fill="#ffab03" d="M42.72,5.67v4.17h-3.7V5.67h-15.8v4.17h-3.7V5.67c0-2.05,1.66-3.7,3.7-3.7h15.8C41.06,1.97,42.72,3.63,42.72,5.67z"/><path d="M42.72,10.81h-3.7c-0.54,0-0.97-0.43-0.97-0.97v-3.2H24.19v3.2c0,0.54-0.43,0.97-0.97,0.97h-3.7c-0.54,0-0.97-0.43-0.97-0.97V5.67c0-2.58,2.1-4.67,4.67-4.67h15.8c2.58,0,4.67,2.1,4.67,4.67v4.17C43.69,10.38,43.26,10.81,42.72,10.81z M39.99,8.87h1.76v-3.2c0-1.51-1.23-2.73-2.73-2.73h-15.8c-1.51,0-2.73,1.23-2.73,2.73v3.2h1.76v-3.2c0-0.54,0.43-0.97,0.97-0.97h15.8c0.54,0,0.97,0.43,0.97,0.97V8.87z"/><path fill="#e2e2e2" d="M63.7,36.66v25.3c0,1.15-0.92,2.07-2.07,2.07H40.69c-1.15,0-2.07-0.92-2.07-2.07v-25.3c0-1.14,0.92-2.06,2.07-2.06h20.95C62.78,34.6,63.7,35.52,63.7,36.66z"/><path fill="#fff" d="M63.7,36.67v17.41h-0.91c-10.76,0-19.48-8.72-19.48-19.48v0h18.32C62.77,34.6,63.7,35.53,63.7,36.67z" opacity=".4"/><path fill="#ef4a51" d="M60.25,11.69v11.4c0,0.85-0.57,1.59-1.39,1.8l-20.96,5.36l-6.18,1.57c-0.3,0.07-0.61,0.07-0.92,0L3.69,24.89c-0.81-0.2-1.39-0.94-1.39-1.8v-11.4c0-1.02,0.82-1.85,1.85-1.85H58.4C59.42,9.84,60.25,10.67,60.25,11.69z"/><path fill="#fff" d="M60.25,11.69v11.4c0,0.85-0.57,1.59-1.39,1.8l-20.96,5.36l-14.11-3.43C16.27,25,10.97,18.26,10.97,10.52v0c0-0.24,0.05-0.46,0.13-0.68h47.3C59.42,9.84,60.25,10.67,60.25,11.69z" opacity=".3"/><path d="M31.27,32.85c-0.23,0-0.46-0.03-0.69-0.08L3.45,25.83c-1.25-0.31-2.12-1.44-2.12-2.74v-11.4c0-1.56,1.27-2.82,2.82-2.82H58.4c1.56,0,2.82,1.27,2.82,2.82v11.4c0,1.3-0.87,2.42-2.12,2.74l-27.13,6.93C31.74,32.82,31.51,32.85,31.27,32.85z M4.15,10.81c-0.49,0-0.88,0.4-0.88,0.88v11.4c0,0.41,0.27,0.76,0.65,0.85l27.13,6.94c0.14,0.03,0.3,0.03,0.44,0l27.13-6.93c0.39-0.1,0.66-0.45,0.66-0.86v-11.4c0-0.49-0.4-0.88-0.88-0.88H4.15z"/><polygon fill="#ffab03" points="33.89 35.09 28.6 35.09 28.6 38.25 31.25 40.88 33.89 38.55"/><path d="M31.25,41.85c-0.25,0-0.49-0.09-0.68-0.28l-2.65-2.62c-0.18-0.18-0.29-0.43-0.29-0.69v-3.16c0-0.54,0.43-0.97,0.97-0.97h5.29c0.54,0,0.97,0.43,0.97,0.97v3.46c0,0.28-0.12,0.54-0.33,0.73l-2.65,2.33C31.7,41.77,31.47,41.85,31.25,41.85z M29.57,37.85l1.72,1.7l1.64-1.44v-2.05h-3.35V37.85z"/><path fill="#ffab03" d="M34.25,35.09h-6c-0.67,0-1.22-0.54-1.22-1.22v-3.98c0-0.67,0.54-1.22,1.22-1.22h6c0.67,0,1.22,0.54,1.22,1.22v3.98C35.46,34.54,34.92,35.09,34.25,35.09z"/><path fill="#fff" d="M35.46,29.68v3.18h-1.59c-2.32,0-4.19-1.88-4.19-4.19v0h4.78C35.01,28.67,35.46,29.12,35.46,29.68z" opacity=".3"/><path d="M34.28 36.06h-6.07c-1.19 0-2.15-.96-2.15-2.15v-4.05c0-1.19.96-2.15 2.15-2.15h6.07c1.19 0 2.15.96 2.15 2.15v4.05C36.43 35.09 35.47 36.06 34.28 36.06zM28.21 29.64c-.12 0-.21.09-.21.21v4.05c0 .12.09.21.21.21h6.07c.12 0 .21-.09.21-.21v-4.05c0-.12-.09-.21-.21-.21H28.21zM61.63 65H40.69c-1.67 0-3.04-1.36-3.04-3.04v-25.3c0-1.67 1.36-3.03 3.04-3.03h20.95c1.68 0 3.04 1.36 3.04 3.03v17.42c0 .54-.43.97-.97.97-.54 0-.97-.43-.97-.97V36.66c0-.6-.49-1.09-1.1-1.09H40.69c-.6 0-1.1.49-1.1 1.09v25.3c0 .6.49 1.1 1.1 1.1h20.95c.61 0 1.1-.49 1.1-1.1v-3.14c0-.54.43-.97.97-.97.54 0 .97.43.97.97v3.14C64.67 63.64 63.31 65 61.63 65z"/><path d="M56.73 40.01H45.59c-.54 0-.97-.43-.97-.97s.43-.97.97-.97h11.14c.54 0 .97.43.97.97S57.27 40.01 56.73 40.01zM59.89 45.15H42.43c-.54 0-.97-.43-.97-.97 0-.54.43-.97.97-.97h17.45c.54 0 .97.43.97.97C60.86 44.71 60.42 45.15 59.89 45.15zM59.89 50.29H42.43c-.54 0-.97-.43-.97-.97 0-.54.43-.97.97-.97h17.45c.54 0 .97.43.97.97C60.86 49.85 60.42 50.29 59.89 50.29zM59.89 55.42H42.43c-.54 0-.97-.43-.97-.97s.43-.97.97-.97h17.45c.54 0 .97.43.97.97S60.42 55.42 59.89 55.42zM52.2 60.56h-9.77c-.54 0-.97-.43-.97-.97 0-.54.43-.97.97-.97h9.77c.54 0 .97.43.97.97C53.17 60.13 52.74 60.56 52.2 60.56z"/></svg>