<svg xmlns="http://www.w3.org/2000/svg" enable-background="new 0 0 50 50" viewBox="0 0 50 50"><path fill="#e56f25" d="M17.4 13.7h1.2v5.5l0 0c-.7 0-1.2-.6-1.2-1.2V13.7zM32.6 13.7h-1.2v5.5l0 0c.7 0 1.2-.6 1.2-1.2V13.7z"/><path fill="#f58634" d="M32.6,16.7v-3.4c0-0.9-0.7-1.6-1.6-1.6h-2.2v5H32.6z"/><rect width="9" height="5.5" x="20.5" y="30.1" fill="#53b1e2"/><path fill="#53b1e2" d="M20.3,31.6c-4.2,0-7.8,3.7-8,8.5c0,0.3,0,0.6,0,0.9v1c0,2,1.4,3.7,3.2,3.7h19.2c1.8,0,3.2-1.6,3.2-3.7v-0.4
			c0-0.8-0.1-1.6-0.2-2.4c-0.6-4.4-4-7.5-7.9-7.5L20.3,31.6z"/><path fill="#fbb444" d="M23.3,24c-0.7,0.8-1.4,5.2-1.6,5.9c-0.5,1.3,0.7,2.9,1.8,4c0.9,0.9,2.1,0.9,3,0c1.1-1.1,2.3-2.6,1.8-4
			c-0.2-0.7-0.9-5.1-1.6-5.9C26.7,24,23.3,24,23.3,24z"/><path fill="#e7e3e6" d="M29.5 30.1L25.7 33l.9 1.3c.4.6 1.2.7 1.7.2l2.8-2.8L29.5 30.1zM20.5 30.1l3.8 2.9-.9 1.3c-.4.6-1.2.7-1.7.2L19 31.7 20.5 30.1z"/><path fill="#ffc966" d="M18.7,16.2v7c0,1.1,0.3,2.2,0.9,3.1l1.4,2.1c1.9,2.9,6.2,2.9,8.1,0l1.4-2.1c0.6-0.9,0.9-2,0.9-3.1v-7
			c0-1.1-0.9-1.9-1.9-1.9h-8.8C19.5,14.3,18.7,15.1,18.7,16.2z"/><path fill="#4e4c4d" d="M32.1 22.4h-.7v-3.2h.7c.5 0 .8.4.8.8v1.6C32.9 22 32.5 22.4 32.1 22.4zM17.9 22.4h.7v-3.2h-.7c-.5 0-.8.4-.8.8v1.6C17.1 22 17.5 22.4 17.9 22.4z"/><path fill="#4e4c4d" d="M29.2,26.4h-2.5v-0.7h2.5c1.2,0,2.1-0.9,2.1-2.1v-1.9H32v1.9C32.1,25.1,30.8,26.4,29.2,26.4z"/><path fill="#fbb444" d="M23.1 25.7c.3.8 1 1.4 1.9 1.4s1.6-.6 1.9-1.4H23.1zM25.8 23.9c-.1-.3-.4-.6-.8-.6s-.7.3-.8.6H25.8z"/><circle cx="26.9" cy="26" r="1" fill="#656766"/><path fill="#f58634" d="M27.8 16.7h-8.9c-1.3 0-2.3-1-2.3-2.3v-3.7h11c.9 0 1.6.7 1.6 1.6v3C29.2 16.1 28.6 16.7 27.8 16.7zM31.6 13.1h-2.4v2.2c0 .8.6 1.4 1.4 1.4h1V13.1z"/><path fill="#85bd57" d="M49,6.4v5.2c0,1.1-0.9,2-2,2h-6.6l-2.6,2.6c-0.4,0.4-1,0.1-1-0.4v-2.2H36c-1.1,0-2-0.9-2-2V6.4
			c0-1.1,0.9-2,2-2h11C48.1,4.4,49,5.3,49,6.4z"/><circle cx="37.7" cy="9" r="1.3" fill="#fff"/><circle cx="41.5" cy="9" r="1.3" fill="#fff"/><circle cx="45.4" cy="9" r="1.3" fill="#fff"/><path fill="#22a7d4" d="M33.2 40.4L33.2 40.4c-.3 0-.5.3-.5.5v4.8h1.1v-4.8C33.7 40.7 33.4 40.4 33.2 40.4zM17 40.4L17 40.4c-.3 0-.5.3-.5.5v4.8h1.1v-4.8C17.6 40.7 17.3 40.4 17 40.4z"/><circle cx="25" cy="36.9" r=".8" fill="#e7e3e6"/><circle cx="25" cy="39.8" r=".8" fill="#e7e3e6"/><circle cx="25" cy="42.6" r=".8" fill="#e7e3e6"/><circle cx="8.4" cy="26" r="7.4" fill="#e85650"/><path fill="#22a7d4" d="M29.5 22.6h-2.8c-.8 0-1.4-.6-1.4-1.4v-1.7c0-.3.3-.6.6-.6h4.4c.3 0 .6.3.6.6v1.7C30.9 22 30.2 22.6 29.5 22.6zM23.3 22.6h-2.8c-.8 0-1.4-.6-1.4-1.4v-1.7c0-.3.3-.6.6-.6h4.4c.3 0 .6.3.6.6v1.7C24.7 22 24.1 22.6 23.3 22.6z" display="none"/><path fill="#e56f25" d="M29.4,20.5H27c-0.2,0-0.3-0.1-0.3-0.3l0,0c0-0.2,0.1-0.3,0.3-0.3h2.4c0.2,0,0.3,0.1,0.3,0.3l0,0
		C29.7,20.3,29.6,20.5,29.4,20.5z"/><circle cx="28.2" cy="20.8" r=".7" fill="#656766"/><path fill="#e56f25" d="M23,20.5h-2.4c-0.2,0-0.3-0.1-0.3-0.3l0,0c0-0.2,0.1-0.3,0.3-0.3H23c0.2,0,0.3,0.1,0.3,0.3l0,0
		C23.3,20.3,23.2,20.5,23,20.5z"/><circle cx="21.8" cy="20.8" r=".7" fill="#656766"/><path fill="#fff" d="M26.7 22c-.4 0-.8-.3-.8-.8v-1.7h4.4v1.7c0 .4-.3.8-.8.8H26.7zM20.5 22c-.4 0-.8-.3-.8-.8v-1.7h4.4v1.7c0 .4-.3.8-.8.8H20.5z" display="none" enable-background="new" opacity=".4"/><path fill="#fff" d="M4.1 25.6c.1-.1.1-.2.1-.4s0-.2-.1-.3S4 24.8 3.8 24.8 3.4 25 3.2 25.3l-.6-.4c.2-.3.3-.5.5-.6s.4-.2.8-.2.6.1.8.3C4.9 24.6 5 24.9 5 25.2c0 .2 0 .4-.1.5s-.3.4-.5.6L3.8 27h1.4v.7H2.6v-.6l1-1.1C3.9 25.9 4 25.7 4.1 25.6zM7 26.2v-.6h.8v.6h.4v.7H7.8v.8H7v-.8H5.6v-.6l1.3-2.1h.9l-1.2 2H7zM10.6 23.7h.7l-2.1 4.6H8.5L10.6 23.7zM11.7 25.4v-1.1h2.6v.6l-1.4 2.9H12l1.4-2.9h-.9v.5H11.7z"/></svg>