<?xml version="1.0" standalone="no"?>
<!DOCTYPE svg PUBLIC "-//W3C//DTD SVG 20010904//EN"
 "http://www.w3.org/TR/2001/REC-SVG-20010904/DTD/svg10.dtd">
<svg version="1.0" xmlns="http://www.w3.org/2000/svg"
 width="241.000000pt" height="241.000000pt" viewBox="0 0 241.000000 241.000000"
 preserveAspectRatio="xMidYMid meet">
<metadata>
Created by potrace 1.14, written by Peter Selinger 2001-2017
</metadata>
<g transform="translate(0.000000,241.000000) scale(0.100000,-0.100000)"
fill="#000000" stroke="none">
<path d="M2 1784 l3 -147 250 -1 250 -1 77 -37 c86 -41 175 -122 208 -190 11
-23 20 -44 20 -48 0 -3 -181 -5 -403 -5 l-402 0 -3 -438 -2 -438 273 2 c240 1
281 3 330 20 91 31 199 84 241 119 38 32 136 130 136 137 0 4 8 16 18 27 30
33 93 154 84 160 -4 3 -79 5 -166 5 -145 0 -158 -2 -174 -20 -33 -40 -72 -79
-72 -72 0 3 -8 -1 -17 -9 -25 -21 -98 -56 -130 -64 -16 -3 -81 -8 -145 -11
l-118 -5 -1 33 c-2 125 -1 241 4 246 3 3 225 5 494 5 l488 0 2 -263 c0 -145 1
-274 2 -286 1 -23 3 -23 146 -23 l145 0 0 285 c0 221 3 285 13 286 78 9 247
-44 301 -93 11 -10 24 -18 28 -18 11 0 76 -65 111 -112 40 -52 86 -146 98
-198 6 -25 13 -54 15 -65 3 -11 5 -35 5 -53 l1 -33 147 3 146 3 -3 45 c-2 42
-14 124 -26 177 -2 12 -9 30 -15 41 -6 11 -7 22 -4 26 3 3 1 6 -5 6 -7 0 -11
3 -10 8 3 16 -16 68 -34 91 -10 13 -18 30 -18 37 0 8 -3 14 -8 14 -4 0 -13 13
-20 29 -7 16 -28 46 -47 66 -19 20 -35 41 -35 46 0 5 -7 9 -16 9 -8 0 -12 5
-9 10 3 6 3 10 -2 10 -4 0 -30 21 -57 45 -27 25 -53 45 -58 45 -16 0 -7 30 13
40 33 18 106 85 158 146 22 26 81 113 81 120 0 3 8 18 19 32 25 36 78 195 85
257 11 95 12 125 6 135 -4 7 -56 10 -145 8 -154 -3 -139 5 -148 -80 -2 -21 -7
-41 -10 -45 -4 -3 -7 -16 -7 -28 0 -59 -148 -285 -187 -285 -6 0 -13 -6 -16
-13 -2 -7 -22 -21 -43 -32 -22 -11 -55 -30 -75 -42 -20 -12 -39 -20 -41 -18
-2 2 -26 -3 -53 -11 -39 -13 -104 -17 -298 -18 -163 -1 -251 2 -256 9 -5 5
-16 34 -25 63 -16 56 -76 173 -101 198 -8 9 -15 19 -15 23 0 11 -109 116 -155
149 -45 31 -140 82 -154 82 -5 0 -22 5 -38 12 -15 6 -32 12 -38 14 -76 19
-136 23 -347 24 l-249 1 3 -147z"/>
<path d="M1249 1908 c0 -13 -1 -106 -1 -208 l-1 -185 147 0 146 -1 0 208 0
208 -145 0 c-143 0 -145 0 -146 -22z"/>
</g>
</svg>
